<?xml version="1.0" encoding="UTF-8"?>
<svg id="Layer_1" data-name="Layer 1" xmlns="http://www.w3.org/2000/svg" viewBox="0 0 819.38 841.89">
  <defs>
    <style>
      .cls-1 {
        fill: #003a4c;
      }

      .cls-1, .cls-2 {
        stroke-width: 0px;
      }

      .cls-2 {
        fill: #fff;
      }
    </style>
  </defs>
  <circle class="cls-2" cx="409.69" cy="414.08" r="402.83"/>
  <g>
    <path class="cls-1" d="M351.5,242.57c3.13,3.48,6.24,6.97,9.39,10.44,15.8,17.41,31.59,34.82,47.42,52.2.74.81.94,1.63.94,2.66-.02,22.33-.01,44.65-.01,66.98,0,40.9,0,81.81,0,122.71,0,.64.02,1.28-.02,1.92-.13,1.77-1.24,2.92-2.98,3.09-.44.04-.89.04-1.33.04-50.22,0-100.44,0-150.66,0-3.02,0-3.9-.84-3.9-3.84,0-19.27,0-38.54,0-57.81,0-.39,0-.79.06-1.18.21-1.66,1.18-2.56,2.83-2.63.54-.03,1.08-.01,1.63-.01,28.93,0,57.86,0,86.79,0h1.86c.33-1.19.46-127.97.17-130.6-.04-.03-.07-.07-.11-.1-.04-.03-.07-.07-.12-.09-.04-.02-.09-.03-.14-.04-.1-.02-.19-.03-.29-.04-.05,0-.1,0-.15,0-.1,0-.2,0-.3,0-.1,0-.2,0-.3,0-56.13,0-112.27,0-168.4,0-.1,0-.2,0-.3,0-.05,0-.1,0-.15-.02-.05,0-.1-.01-.15-.02-.05-.01-.09-.03-.28-.1-.18-.32-.44-.73-.66-1.16-10.3-20.29-20.6-40.57-30.89-60.87-.24-.47-.33-1-.49-1.51,70.18,0,140.36,0,210.54,0Z"/>
    <rect class="cls-1" x="172.1" y="318.56" width="68.95" height="267.03"/>
    <path class="cls-1" d="M677.39,305.19c-18.83-20.71-37.64-41.44-56.45-62.17-.13-.15-.25-.3-.38-.45h-210.54c.16.46.27.94.48,1.37,10.33,20.38,20.68,40.75,31.02,61.13,1.36,1.21,1.08,2.83,1.08,4.37,0,91.41,0,182.82,0,274.23,0,.64-.04,1.28-.06,1.92h65.65c-.01-.49-.04-.98-.04-1.48,0-26.5,0-53.01,0-79.51v-1.73c1.17-.33,102.68-.42,104.67-.09.02.58.06,1.2.06,1.82,0,26.21,0,52.42,0,78.63,0,.79,0,1.58,0,2.36h65.52v-227.45c0-.12,0-.24,0-.36,0-16.71,0-33.41.03-50.12,0-1.03-.37-1.74-1.04-2.47ZM612.88,435.06v2.02h-104.41c-.1-.08-.14-.11-.17-.15-.03-.03-.07-.08-.08-.12-.03-.19-.07-.39-.07-.58,0-43.12,0-86.23.01-129.35,0-.14.06-.28.15-.63h1.99c30.12,0,60.23-.01,90.35.03l11.67,21.83.57-.07c-.02.18-.03.37-.03.58.02,35.48.02,70.96.02,106.44Z"/>
  </g>
</svg>