<?xml version="1.0" encoding="UTF-8"?>
<svg id="Layer_1" data-name="Layer 1" xmlns="http://www.w3.org/2000/svg" viewBox="0 0 819.38 841.89">
  <defs>
    <style>
      .cls-1 {
        fill: #003a4c;
      }

      .cls-1, .cls-2 {
        stroke-width: 0px;
      }

      .cls-2 {
        fill: #fff;
      }
    </style>
  </defs>
  <circle class="cls-1" cx="409.69" cy="414.08" r="402.83"/>
  <g>
    <path class="cls-2" d="M352.82,246.46c3.06,3.4,6.1,6.81,9.17,10.2,15.44,17.01,30.88,34.03,46.34,51.01.72.79.92,1.59.92,2.6-.02,21.82-.01,43.64-.01,65.46,0,39.98,0,79.95,0,119.93,0,.63.02,1.25-.02,1.88-.12,1.73-1.21,2.85-2.92,3.02-.43.04-.87.04-1.3.04-49.08,0-98.16,0-147.24,0-2.96,0-3.81-.82-3.81-3.75,0-18.83,0-37.67,0-56.5,0-.38,0-.77.05-1.15.21-1.62,1.15-2.5,2.77-2.57.53-.02,1.06-.01,1.59-.01,28.27,0,56.55,0,84.82,0h1.82c.32-1.16.45-125.07.17-127.64-.04-.03-.07-.06-.11-.09-.04-.03-.07-.07-.12-.09-.04-.02-.09-.03-.14-.04-.09-.02-.19-.03-.29-.04-.05,0-.1,0-.14,0-.1,0-.19,0-.29,0-.1,0-.19,0-.29,0-54.86,0-109.72,0-164.58,0-.1,0-.19,0-.29,0-.05,0-.1,0-.14-.01-.05,0-.1-.01-.14-.02-.05-.01-.09-.03-.27-.1-.18-.31-.43-.71-.64-1.13-10.07-19.83-20.14-39.65-30.19-59.48-.23-.46-.32-.98-.48-1.47,68.59,0,137.18,0,205.77,0Z"/>
    <rect class="cls-2" x="177.49" y="320.73" width="67.39" height="260.97"/>
    <path class="cls-2" d="M671.32,307.66c-18.4-20.24-36.79-40.5-55.17-60.76-.13-.14-.25-.29-.37-.44h-205.77c.15.45.26.92.47,1.34,10.1,19.92,20.21,39.83,30.32,59.74,1.33,1.18,1.06,2.77,1.06,4.27,0,89.34,0,178.67,0,268.01,0,.62-.04,1.25-.06,1.87h64.16c-.01-.48-.04-.96-.04-1.44,0-25.9,0-51.81,0-77.71v-1.69c1.14-.33,100.35-.41,102.3-.09.02.57.06,1.17.06,1.78,0,25.61,0,51.23,0,76.84,0,.77,0,1.54,0,2.31h64.04v-222.29c0-.12,0-.24,0-.35,0-16.33,0-32.66.02-48.98,0-1.01-.37-1.7-1.01-2.41ZM608.27,434.58v1.97h-102.04c-.09-.08-.13-.11-.16-.15-.03-.03-.07-.07-.07-.12-.03-.19-.07-.38-.07-.57,0-42.14,0-84.28.01-126.42,0-.14.06-.28.14-.61h1.95c29.43,0,58.87-.01,88.3.03l11.4,21.34.56-.06c-.02.18-.03.37-.03.56.02,34.67.02,69.35.02,104.02Z"/>
  </g>
</svg>